<svg width="375.000000" height="812.000000" viewBox="0 0 375 812" fill="none" xmlns="http://www.w3.org/2000/svg" xmlns:xlink="http://www.w3.org/1999/xlink">
	<desc>
			Created with Pixso.
	</desc>
	<defs>
		<clipPath id="clip1_24">
			<rect id="Bars / Home Indicator" rx="0.000000" width="374.000000" height="30.702898" transform="translate(0.500000 780.500000)" fill="white" fill-opacity="0"/>
		</clipPath>
		<clipPath id="clip1_44">
			<rect id="logos:netflix" rx="0.000000" width="206.191406" height="54.984375" transform="translate(84.404297 332.404297)" fill="white" fill-opacity="0"/>
		</clipPath>
		<clipPath id="clip1_2">
			<rect id="LOGO" rx="0.000000" width="374.000000" height="811.000000" transform="translate(0.500000 0.500000)" fill="white" fill-opacity="0"/>
		</clipPath>
	</defs>
	<rect id="LOGO" rx="0.000000" width="374.000000" height="811.000000" transform="translate(0.500000 0.500000)" fill="#FFFFFF" fill-opacity="1.000000"/>
	<g clip-path="url(#clip1_2)">
		<rect id="Bars / Home Indicator" rx="0.000000" width="374.000000" height="30.702898" transform="translate(0.500000 780.500000)" fill="#000000" fill-opacity="1.000000"/>
		<g clip-path="url(#clip1_24)">
			<rect id="⬛ Background" y="779.094177" width="375.000000" height="31.702898" fill="#F7F7F7" fill-opacity="0"/>
			<rect id="Line" x="126.811592" y="798.115906" rx="2.264493" width="121.376808" height="4.528986" fill="#FFFFFF" fill-opacity="1.000000"/>
		</g>
		<rect id="Bars / Home Indicator" rx="0.000000" width="374.000000" height="30.702898" transform="translate(0.500000 780.500000)" stroke="#000000" stroke-opacity="0" stroke-width="1.000000"/>
		<rect id="Bars / Status Bar / iPhone / Light" rx="0.000000" width="374.000000" height="43.000000" transform="translate(0.500000 0.500000)" fill="#000000" fill-opacity="1.000000"/>
		<g opacity="0.350000" style="mix-blend-mode:normal">
			<rect id="Border" x="336.833313" y="17.833344" rx="2.666667" width="21.000000" height="10.333333" stroke="#FFFFFF" stroke-opacity="1.000000" stroke-width="1.000000"/>
		</g>
		<g opacity="0.400000" style="mix-blend-mode:normal">
			<path id="Cap" d="M359.33 21L359.33 25C360.13 24.66 360.66 23.87 360.66 23C360.66 22.12 360.13 21.33 359.33 21Z" fill="#FFFFFF" fill-opacity="1.000000" fill-rule="nonzero"/>
		</g>
		<rect id="Capacity" x="338.333313" y="19.333344" rx="1.333333" width="18.000000" height="7.333333" fill="#FFFFFF" fill-opacity="1.000000"/>
		<path id="Wifi" d="M329.644 22.001C328.031 20.4694 325.892 19.6153 323.667 19.6152C321.442 19.6152 319.302 20.4693 317.69 22.001C317.568 22.1194 317.374 22.1179 317.255 21.9976L316.094 20.8273C316.033 20.7663 315.999 20.6838 316 20.598C316.001 20.5121 316.035 20.43 316.097 20.3699C320.329 16.3176 327.005 16.3176 331.237 20.3699C331.298 20.4301 331.333 20.5122 331.333 20.598C331.334 20.6839 331.3 20.7664 331.24 20.8273L330.079 21.9976C329.959 22.1177 329.765 22.1192 329.644 22.001ZM323.667 23.4228C324.889 23.4227 326.068 23.8766 326.974 24.6964C327.097 24.8127 327.29 24.8102 327.409 24.6907L328.569 23.5204C328.63 23.459 328.663 23.3757 328.663 23.2892C328.662 23.2027 328.626 23.1201 328.564 23.0599C325.805 20.4955 321.532 20.4955 318.773 23.0599C318.71 23.1201 318.675 23.2027 318.674 23.2892C318.673 23.3758 318.707 23.4591 318.768 23.5204L319.927 24.6907C320.047 24.8102 320.24 24.8127 320.362 24.6964C321.268 23.8772 322.446 23.4232 323.667 23.4228ZM325.989 25.9846C325.991 26.0714 325.957 26.155 325.895 26.2158L323.89 28.2378C323.831 28.2972 323.751 28.3307 323.667 28.3307C323.583 28.3307 323.503 28.2972 323.445 28.2378L321.439 26.2158C321.377 26.155 321.343 26.0713 321.345 25.9845C321.346 25.8977 321.384 25.8156 321.449 25.7574C322.729 24.6751 324.605 24.6751 325.886 25.7574C325.95 25.8156 325.988 25.8978 325.989 25.9846Z" clip-rule="evenodd" fill="#FFFFFF" fill-opacity="1.000000" fill-rule="evenodd"/>
		<path id="Cellular Connection" d="M310 17.6667L309 17.6667C308.448 17.6667 308 18.1144 308 18.6667L308 27.3333C308 27.8856 308.448 28.3333 309 28.3333L310 28.3333C310.552 28.3333 311 27.8856 311 27.3333L311 18.6667C311 18.1144 310.552 17.6667 310 17.6667ZM304.333 20L305.333 20C305.886 20 306.333 20.4477 306.333 21L306.333 27.3333C306.333 27.8856 305.886 28.3333 305.333 28.3333L304.333 28.3333C303.781 28.3333 303.333 27.8856 303.333 27.3333L303.333 21C303.333 20.4477 303.781 20 304.333 20ZM300.667 22.3333L299.667 22.3333C299.114 22.3333 298.667 22.781 298.667 23.3333L298.667 27.3333C298.667 27.8856 299.114 28.3333 299.667 28.3333L300.667 28.3333C301.219 28.3333 301.667 27.8856 301.667 27.3333L301.667 23.3333C301.667 22.781 301.219 22.3333 300.667 22.3333ZM296 24.3333L295 24.3333C294.448 24.3333 294 24.781 294 25.3333L294 27.3333C294 27.8856 294.448 28.3333 295 28.3333L296 28.3333C296.552 28.3333 297 27.8856 297 27.3333L297 25.3333C297 24.781 296.552 24.3333 296 24.3333Z" clip-rule="evenodd" fill="#FFFFFF" fill-opacity="1.000000" fill-rule="evenodd"/>
		<rect id="Time Style" rx="0.000000" width="53.000000" height="20.000000" transform="translate(21.500000 7.500000)" fill="#FFFFFF" fill-opacity="0"/>
		<path id="Time" d="M41.36 22.92C41.36 26.48 39.76 28.58 37.08 28.58C35.14 28.58 33.67 27.44 33.36 25.71L35.24 25.71C35.48 26.5 36.18 27 37.09 27C38.64 27 39.55 25.56 39.55 23.14L39.43 23.14C38.93 24.14 37.93 24.72 36.69 24.72C34.67 24.72 33.21 23.24 33.21 21.21C33.21 19.04 34.83 17.49 37.13 17.49C38.68 17.49 39.9 18.23 40.61 19.58C41.1 20.45 41.36 21.58 41.36 22.92ZM54.41 28.33L52.6 28.33L52.6 26.36L47.44 26.36L47.44 24.67C48.39 22.92 49.87 20.57 51.74 17.76L54.41 17.76L54.41 24.76L55.84 24.76L55.84 26.36L54.41 26.36L54.41 28.33ZM61.81 28.33L59.93 28.33L59.93 19.66L59.8 19.66L57.17 21.51L57.17 19.69L59.93 17.76L61.81 17.76L61.81 28.33ZM35.06 21.15C35.06 22.36 35.93 23.22 37.14 23.22C38.35 23.22 39.24 22.36 39.24 21.18C39.24 19.98 38.33 19.07 37.15 19.07C35.97 19.07 35.06 19.97 35.06 21.15ZM52.53 19.3C51.52 20.79 50.42 22.53 49.19 24.69L49.19 24.8L52.63 24.8L52.63 19.3L52.53 19.3ZM45.68 21.84C45.68 22.5 45.21 22.99 44.51 22.99C43.82 22.99 43.34 22.5 43.34 21.84C43.34 21.17 43.82 20.68 44.51 20.68C45.21 20.68 45.68 21.17 45.68 21.84ZM45.68 27.32C45.68 27.98 45.21 28.48 44.51 28.48C43.82 28.48 43.34 27.98 43.34 27.32C43.34 26.66 43.82 26.17 44.51 26.17C45.21 26.17 45.68 26.66 45.68 27.32Z" fill="#FFFFFF" fill-opacity="1.000000" fill-rule="evenodd"/>
		<rect id="Rectangle 1" y="44.000000" width="375.000000" height="736.000000" fill="#000000" fill-opacity="1.000000"/>
		<rect id="Bars / Status Bar / iPhone / Light" rx="0.000000" width="374.000000" height="43.000000" transform="translate(0.500000 0.500000)" stroke="#000000" stroke-opacity="0" stroke-width="1.000000"/>
		<rect id="logos:netflix" rx="0.000000" width="206.191406" height="54.984375" transform="translate(84.404297 332.404297)" fill="#FFFFFF" fill-opacity="0"/>
		<g clip-path="url(#clip1_44)">
			<path id="Vector" d="M221.72 332L221.72 372.51C226.72 372.74 231.7 373.02 236.67 373.35L236.67 381.94C228.79 381.42 220.9 381.02 213 380.75L213 332L221.72 332ZM290.99 332L279.64 358.32L290.99 387.6L290.98 387.61C287.67 387.14 284.36 386.69 281.04 386.27L274.67 369.83L268.24 384.74C265.19 384.4 262.13 384.09 259.07 383.79L270.14 358.14L260.01 332L269.44 332L275.11 346.63L281.42 332L290.99 332ZM183.09 380.32L183.09 332L207.42 332L207.42 340.67L191.8 340.67L191.8 351.9L203.62 351.9L203.62 360.49L191.8 360.49L191.8 380.32L183.09 380.32ZM150.53 340.67L150.53 332L177.5 332L177.5 340.67L168.37 340.67L168.37 380.55C165.46 380.63 162.56 380.72 159.66 380.83L159.66 340.67L150.53 340.67ZM120.73 383.33L120.73 332L144.95 332L144.95 340.67L129.45 340.67L129.45 352.41C133.01 352.36 138.07 352.31 141.22 352.32L141.22 360.91C137.28 360.86 132.83 360.96 129.45 360.99L129.45 374C134.61 373.59 139.78 373.24 144.95 372.94L144.95 381.53C136.87 382 128.79 382.6 120.73 383.33L120.73 383.33ZM103.63 363.47L103.63 332L112.35 332L112.35 384.14C109.16 384.47 105.98 384.81 102.81 385.18L92.71 356.18L92.71 386.42C89.8 386.8 86.89 387.2 83.99 387.61L83.99 332L92.28 332L103.63 363.47L103.63 363.47ZM243.86 382.46L243.86 332L252.58 332L252.58 383.18C249.68 382.92 246.77 382.68 243.86 382.46L243.86 382.46Z" fill="#DB202C" fill-opacity="1.000000" fill-rule="nonzero"/>
		</g>
	</g>
</svg>
