<svg width="17.000000" height="10.666656" viewBox="0 0 17 10.6667" fill="none" xmlns="http://www.w3.org/2000/svg" xmlns:xlink="http://www.w3.org/1999/xlink">
	<desc>
			Created with Pixso.
	</desc>
	<defs/>
	<path id="Cellular Connection" d="M16 0L15 0C14.4478 0 14 0.447723 14 1L14 9.66666C14 10.219 14.4478 10.6667 15 10.6667L16 10.6667C16.5522 10.6667 17 10.219 17 9.66666L17 1C17 0.447723 16.5522 0 16 0ZM10.3334 2.33334L11.3334 2.33334C11.8856 2.33334 12.3334 2.78104 12.3334 3.33334L12.3334 9.66666C12.3334 10.219 11.8856 10.6667 11.3334 10.6667L10.3334 10.6667C9.78101 10.6667 9.33337 10.219 9.33337 9.66666L9.33337 3.33334C9.33337 2.78104 9.78101 2.33334 10.3334 2.33334ZM6.66663 4.66666L5.66663 4.66666C5.11438 4.66666 4.66663 5.11438 4.66663 5.66666L4.66663 9.66666C4.66663 10.219 5.11438 10.6667 5.66663 10.6667L6.66663 10.6667C7.21899 10.6667 7.66663 10.219 7.66663 9.66666L7.66663 5.66666C7.66663 5.11438 7.21899 4.66666 6.66663 4.66666ZM2 6.66666L1 6.66666C0.447754 6.66666 0 7.11438 0 7.66666L0 9.66666C0 10.219 0.447754 10.6667 1 10.6667L2 10.6667C2.55225 10.6667 3 10.219 3 9.66666L3 7.66666C3 7.11438 2.55225 6.66666 2 6.66666Z" clip-rule="evenodd" fill="#FFFFFF" fill-opacity="1.000000" fill-rule="evenodd"/>
</svg>
