<svg width="42.000000" height="45.000000" viewBox="0 0 42 45" fill="none" xmlns="http://www.w3.org/2000/svg" xmlns:xlink="http://www.w3.org/1999/xlink">
	<desc>
			Created with Pixso.
	</desc>
	<defs>
		<clipPath id="clip6_283">
			<rect id="fe:download" rx="0.000000" width="23.000000" height="23.000000" transform="translate(9.500000 0.500000)" fill="white" fill-opacity="0"/>
		</clipPath>
	</defs>
	<path id="Downloads" d="M0.59 32.11L0.59 26.33L2.63 26.33C4.35 26.33 5.36 27.39 5.36 29.21C5.36 31.04 4.35 32.11 2.63 32.11L0.59 32.11ZM23.07 32.11L22.2 32.11L22.2 26.33L23.07 26.33L23.07 32.11ZM36.39 31.39C36.14 31.87 35.66 32.18 35.05 32.18C33.98 32.18 33.28 31.33 33.28 30C33.28 28.67 33.98 27.83 35.04 27.83C35.64 27.83 36.13 28.13 36.36 28.6L36.38 28.6L36.38 26.33L37.25 26.33L37.25 32.11L36.41 32.11L36.41 31.39L36.39 31.39ZM2.55 27.11L1.49 27.11L1.49 31.33L2.55 31.33C3.77 31.33 4.45 30.58 4.45 29.22C4.45 27.86 3.77 27.11 2.55 27.11ZM10.19 30C10.19 31.36 9.39 32.19 8.19 32.19C6.98 32.19 6.19 31.36 6.19 30C6.19 28.65 6.99 27.82 8.19 27.82C9.39 27.82 10.19 28.65 10.19 30ZM28.03 30C28.03 31.36 27.23 32.19 26.03 32.19C24.82 32.19 24.03 31.36 24.03 30C24.03 28.65 24.83 27.82 26.03 27.82C27.23 27.82 28.03 28.65 28.03 30ZM31.52 31.42C31.27 31.89 30.74 32.18 30.19 32.18C29.36 32.18 28.79 31.67 28.79 30.91C28.79 30.18 29.35 29.72 30.35 29.67L31.5 29.6L31.5 29.28C31.5 28.81 31.19 28.53 30.66 28.53C30.16 28.53 29.85 28.77 29.77 29.14L28.95 29.14C29 28.38 29.65 27.82 30.69 27.82C31.71 27.82 32.37 28.36 32.37 29.21L32.37 32.11L31.54 32.11L31.54 31.42L31.52 31.42ZM39.46 30.26C38.7 30.08 38.32 29.68 38.32 29.09C38.32 28.34 38.98 27.82 39.97 27.82C40.91 27.82 41.56 28.35 41.59 29.09L40.78 29.09C40.74 28.71 40.43 28.48 39.94 28.48C39.48 28.48 39.16 28.71 39.16 29.04C39.16 29.3 39.37 29.48 39.81 29.58L40.52 29.75C41.37 29.95 41.69 30.27 41.69 30.89C41.69 31.66 40.97 32.19 39.94 32.19C38.94 32.19 38.28 31.67 38.21 30.9L39.07 30.9C39.14 31.31 39.45 31.53 39.98 31.53C40.5 31.53 40.82 31.31 40.82 30.97C40.82 30.7 40.66 30.56 40.22 30.44L39.46 30.26ZM18.31 32.11L17.44 32.11L17.44 27.9L18.27 27.9L18.27 28.6L18.29 28.6C18.52 28.12 18.97 27.83 19.61 27.83C20.54 27.83 21.08 28.42 21.08 29.38L21.08 32.11L20.21 32.11L20.21 29.55C20.21 28.92 19.91 28.57 19.31 28.57C18.7 28.57 18.31 29 18.31 29.66L18.31 32.11ZM15.8 27.9L16.66 27.9L15.5 32.11L14.6 32.11L13.72 28.95L13.7 28.95L12.82 32.11L11.93 32.11L10.77 27.9L11.63 27.9L12.4 31.21L12.42 31.21L13.3 27.9L14.13 27.9L15.01 31.21L15.03 31.21L15.8 27.9ZM7.07 30C7.07 30.94 7.51 31.48 8.19 31.48C8.87 31.48 9.3 30.94 9.3 30C9.3 29.07 8.86 28.53 8.19 28.53C7.51 28.53 7.07 29.07 7.07 30ZM24.91 30C24.91 30.94 25.35 31.48 26.03 31.48C26.71 31.48 27.14 30.94 27.14 30C27.14 29.07 26.7 28.53 26.03 28.53C25.35 28.53 24.91 29.07 24.91 30ZM36.39 30C36.39 29.13 35.94 28.56 35.28 28.56C34.59 28.56 34.16 29.12 34.16 30C34.16 30.89 34.59 31.45 35.28 31.45C35.94 31.45 36.39 30.88 36.39 30ZM29.66 30.89C29.66 31.26 29.96 31.5 30.43 31.5C31.03 31.5 31.5 31.08 31.5 30.53L31.5 30.2L30.47 30.26C29.95 30.3 29.66 30.53 29.66 30.89Z" fill="#8C8787" fill-opacity="1.000000" fill-rule="evenodd"/>
	<rect id="fe:download" rx="0.000000" width="23.000000" height="23.000000" transform="translate(9.500000 0.500000)" fill="#FFFFFF" fill-opacity="0"/>
	<g clip-path="url(#clip6_283)">
		<path id="Vector" d="M14 19L28 19C28.26 19 28.51 19.1 28.7 19.29C28.89 19.48 29 19.73 29 20C29 20.26 28.89 20.51 28.7 20.7C28.51 20.89 28.26 21 28 21L14 21C13.73 21 13.48 20.89 13.29 20.7C13.1 20.51 13 20.26 13 20C13 19.73 13.1 19.48 13.29 19.29C13.48 19.1 13.73 19 14 19ZM22 13.17L25.24 9.93L26.65 11.34L21 17L15.34 11.34L16.75 9.93L20 13.17L20 2L22 2L22 13.17Z" fill="#8C8787" fill-opacity="1.000000" fill-rule="evenodd"/>
	</g>
</svg>
