<svg width="19.000000" height="19.000000" viewBox="0 0 19 19" fill="none" xmlns="http://www.w3.org/2000/svg" xmlns:xlink="http://www.w3.org/1999/xlink">
	<desc>
			Created with Pixso.
	</desc>
	<defs>
		<clipPath id="clip6_423">
			<rect id="bi:bell-fill" rx="0.000000" width="10.312500" height="10.312500" transform="translate(4.343750 4.343750)" fill="white" fill-opacity="0"/>
		</clipPath>
	</defs>
	<circle id="Ellipse 6" cx="9.500000" cy="9.500000" r="9.500000" fill="#F50914" fill-opacity="1.000000"/>
	<rect id="bi:bell-fill" rx="0.000000" width="10.312500" height="10.312500" transform="translate(4.343750 4.343750)" fill="#FFFFFF" fill-opacity="0"/>
	<g clip-path="url(#clip6_423)">
		<path id="Vector" d="M9.5 15C9.86 15 10.21 14.85 10.47 14.59C10.73 14.33 10.87 13.98 10.87 13.62L8.12 13.62C8.12 13.98 8.26 14.33 8.52 14.59C8.78 14.85 9.13 15 9.5 15ZM10.18 4.75C10.19 4.65 10.18 4.56 10.15 4.47C10.12 4.38 10.07 4.29 10 4.22C9.94 4.15 9.86 4.09 9.77 4.05C9.69 4.01 9.59 3.99 9.5 3.99C9.4 3.99 9.3 4.01 9.22 4.05C9.13 4.09 9.05 4.15 8.99 4.22C8.92 4.29 8.87 4.38 8.84 4.47C8.81 4.56 8.8 4.65 8.81 4.75C8.03 4.91 7.34 5.33 6.83 5.94C6.33 6.56 6.06 7.33 6.06 8.12C6.06 8.87 5.71 12.25 4.68 12.93L14.31 12.93C13.28 12.25 12.93 8.87 12.93 8.12C12.93 6.46 11.75 5.07 10.18 4.75Z" fill="#FFFFFF" fill-opacity="1.000000" fill-rule="nonzero"/>
	</g>
</svg>
