<svg width="28.000000" height="28.000000" viewBox="0 0 28 28" fill="none" xmlns="http://www.w3.org/2000/svg" xmlns:xlink="http://www.w3.org/1999/xlink">
	<desc>
			Created with Pixso.
	</desc>
	<defs>
		<clipPath id="clip6_178">
			<rect id="bx:bx-play-circle" rx="0.000000" width="26.833334" height="26.833334" transform="translate(0.583333 0.583333)" fill="white" fill-opacity="0"/>
		</clipPath>
	</defs>
	<rect id="bx:bx-play-circle" rx="0.000000" width="26.833334" height="26.833334" transform="translate(0.583333 0.583333)" fill="#FFFFFF" fill-opacity="0"/>
	<g clip-path="url(#clip6_178)">
		<path id="Vector" d="M14 2.33C7.56 2.33 2.33 7.56 2.33 14C2.33 20.43 7.56 25.66 14 25.66C20.43 25.66 25.66 20.43 25.66 14C25.66 7.56 20.43 2.33 14 2.33ZM14 23.33C8.85 23.33 4.66 19.14 4.66 14C4.66 8.85 8.85 4.66 14 4.66C19.14 4.66 23.33 8.85 23.33 14C23.33 19.14 19.14 23.33 14 23.33Z" fill="#FFFFFF" fill-opacity="1.000000" fill-rule="nonzero"/>
		<path id="Vector" d="M10.5 19.83L19.83 14L10.5 8.16L10.5 19.83Z" fill="#FFFFFF" fill-opacity="1.000000" fill-rule="nonzero"/>
	</g>
</svg>
