<svg width="54.000000" height="40.000000" viewBox="0 0 54 40" fill="none" xmlns="http://www.w3.org/2000/svg" xmlns:xlink="http://www.w3.org/1999/xlink">
	<desc>
			Created with Pixso.
	</desc>
	<defs>
		<clipPath id="clip6_429">
			<rect id="bi:bell-fill" rx="0.000000" width="22.500000" height="22.500000" transform="translate(15.750000 0.750000)" fill="white" fill-opacity="0"/>
		</clipPath>
	</defs>
	<path id="Remind Me" d="M4.61 36.01L2.73 36.01L2.73 39.11L1.76 39.11L1.76 31.27L4.7 31.27C6.21 31.27 7.2 32.19 7.2 33.61C7.2 34.7 6.6 35.55 5.62 35.86L7.44 39.11L6.29 39.11L4.61 36.01ZM34.89 38.16C34.53 38.81 33.88 39.21 33.07 39.21C31.63 39.21 30.65 38.06 30.65 36.29C30.65 34.52 31.62 33.36 33.05 33.36C33.86 33.36 34.51 33.76 34.84 34.38L34.87 34.38L34.87 31.27L35.81 31.27L35.81 39.11L34.91 39.11L34.91 38.16L34.89 38.16ZM47.19 31.27L47.19 39.11L46.27 39.11L46.27 33.07L46.24 33.07L43.74 39.06L42.91 39.06L40.41 33.07L40.37 33.07L40.37 39.11L39.46 39.11L39.46 31.27L40.59 31.27L43.3 37.81L43.34 37.81L46.05 31.27L47.19 31.27ZM23.96 31.92C23.96 32.24 23.69 32.51 23.37 32.51C23.05 32.51 22.78 32.24 22.78 31.92C22.78 31.6 23.05 31.34 23.37 31.34C23.69 31.34 23.96 31.6 23.96 31.92ZM4.57 32.14L2.73 32.14L2.73 35.15L4.61 35.15C5.61 35.15 6.19 34.6 6.19 33.64C6.19 32.7 5.58 32.14 4.57 32.14ZM10.6 38.39C11.32 38.39 11.85 38.03 12 37.49L12.93 37.49C12.77 38.48 11.81 39.21 10.58 39.21C8.96 39.21 7.98 38.09 7.98 36.31C7.98 34.55 8.98 33.36 10.54 33.36C12.06 33.36 13 34.47 13 36.18L13 36.54L8.95 36.54L8.95 36.6C8.95 37.68 9.58 38.39 10.6 38.39ZM14.88 39.11L13.93 39.11L13.93 33.46L14.82 33.46L14.82 34.36L14.84 34.36C15.11 33.77 15.68 33.36 16.45 33.36C17.22 33.36 17.79 33.75 18.03 34.44L18.05 34.44C18.37 33.77 19.03 33.36 19.83 33.36C20.95 33.36 21.67 34.09 21.67 35.21L21.67 39.11L20.72 39.11L20.72 35.43C20.72 34.66 20.29 34.2 19.55 34.2C18.8 34.2 18.27 34.75 18.27 35.52L18.27 39.11L17.33 39.11L17.33 35.32C17.33 34.65 16.87 34.2 16.17 34.2C15.42 34.2 14.88 34.79 14.88 35.57L14.88 39.11ZM26.03 39.11L25.09 39.11L25.09 33.46L25.98 33.46L25.98 34.36L26 34.36C26.31 33.75 26.92 33.36 27.79 33.36C29.03 33.36 29.75 34.16 29.75 35.44L29.75 39.11L28.8 39.11L28.8 35.61C28.8 34.7 28.37 34.2 27.51 34.2C26.61 34.2 26.03 34.83 26.03 35.79L26.03 39.11ZM50.88 38.39C51.6 38.39 52.12 38.03 52.28 37.49L53.21 37.49C53.05 38.48 52.09 39.21 50.86 39.21C49.24 39.21 48.25 38.09 48.25 36.31C48.25 34.55 49.25 33.36 50.81 33.36C52.34 33.36 53.28 34.47 53.28 36.18L53.28 36.54L49.23 36.54L49.23 36.6C49.23 37.68 49.86 38.39 50.88 38.39ZM23.84 39.11L22.89 39.11L22.89 33.46L23.84 33.46L23.84 39.11ZM12.03 35.8C12 34.86 11.41 34.18 10.52 34.18C9.63 34.18 9.01 34.86 8.95 35.8L12.03 35.8ZM52.3 35.8C52.28 34.86 51.69 34.18 50.8 34.18C49.91 34.18 49.29 34.86 49.23 35.8L52.3 35.8ZM34.87 36.29C34.87 35.03 34.22 34.19 33.25 34.19C32.25 34.19 31.62 35.01 31.62 36.29C31.62 37.57 32.25 38.38 33.25 38.38C34.22 38.38 34.87 37.55 34.87 36.29Z" fill="#FFFFFF" fill-opacity="0.830000" fill-rule="evenodd"/>
	<rect id="bi:bell-fill" rx="0.000000" width="22.500000" height="22.500000" transform="translate(15.750000 0.750000)" fill="#FFFFFF" fill-opacity="0"/>
	<g clip-path="url(#clip6_429)">
		<path id="Vector" d="M27 24C27.79 24 28.55 23.68 29.12 23.12C29.68 22.55 30 21.79 30 21L24 21C24 21.79 24.31 22.55 24.87 23.12C25.44 23.68 26.2 24 27 24ZM28.49 1.64C28.51 1.43 28.49 1.22 28.42 1.03C28.35 0.83 28.25 0.64 28.11 0.49C27.97 0.33 27.8 0.21 27.6 0.12C27.41 0.04 27.2 -0.01 27 -0.01C26.79 -0.01 26.58 0.04 26.39 0.12C26.2 0.21 26.02 0.33 25.88 0.49C25.74 0.64 25.64 0.83 25.57 1.03C25.5 1.22 25.48 1.43 25.5 1.64C23.81 1.99 22.28 2.91 21.19 4.25C20.09 5.59 19.5 7.26 19.5 8.99C19.5 10.64 18.75 18 16.5 19.5L37.5 19.5C35.25 18 34.5 10.64 34.5 8.99C34.5 5.36 31.91 2.33 28.49 1.64Z" fill="#FFFFFF" fill-opacity="1.000000" fill-rule="nonzero"/>
	</g>
</svg>
