<svg width="21.000000" height="42.000000" viewBox="0 0 21 42" fill="none" xmlns="http://www.w3.org/2000/svg" xmlns:xlink="http://www.w3.org/1999/xlink">
	<desc>
			Created with Pixso.
	</desc>
	<defs/>
	<path id="Vector" d="M0 0L0 3.39L21 3.39L21 0L0 0ZM0 6.79L0 10.2L21 10.2L21 6.79L0 6.79ZM0 13.6L0 17L21 17L21 13.6L0 13.6Z" fill="#8C8787" fill-opacity="1.000000" fill-rule="nonzero"/>
	<path id="More" d="M7.87 23.33L7.87 29.11L7.05 29.11L7.05 24.86L7.02 24.86L5.28 29.07L4.62 29.07L2.87 24.86L2.84 24.86L2.84 29.11L2.02 29.11L2.02 23.33L3.06 23.33L4.93 27.89L4.96 27.89L6.83 23.33L7.87 23.33ZM12.9 27C12.9 28.36 12.11 29.19 10.9 29.19C9.7 29.19 8.9 28.36 8.9 27C8.9 25.65 9.7 24.82 10.9 24.82C12.1 24.82 12.9 25.65 12.9 27ZM18.41 28.49C18.9 28.49 19.27 28.24 19.38 27.87L20.21 27.87C20.09 28.64 19.36 29.19 18.39 29.19C17.15 29.19 16.41 28.35 16.41 27.02C16.41 25.7 17.17 24.82 18.36 24.82C19.52 24.82 20.25 25.65 20.25 26.92L20.25 27.22L17.28 27.22L17.28 27.27C17.28 28 17.72 28.49 18.41 28.49ZM14.69 29.11L13.83 29.11L13.83 24.9L14.65 24.9L14.65 25.61L14.67 25.61C14.81 25.12 15.19 24.83 15.69 24.83C15.81 24.83 15.92 24.85 15.98 24.86L15.98 25.67C15.91 25.64 15.76 25.62 15.59 25.62C15.04 25.62 14.69 25.99 14.69 26.59L14.69 29.11ZM19.39 26.62C19.37 25.97 18.96 25.52 18.36 25.52C17.75 25.52 17.33 25.98 17.28 26.62L19.39 26.62ZM9.78 27C9.78 27.94 10.22 28.48 10.9 28.48C11.58 28.48 12.02 27.94 12.02 27C12.02 26.07 11.58 25.53 10.9 25.53C10.22 25.53 9.78 26.07 9.78 27Z" fill="#8C8787" fill-opacity="1.000000" fill-rule="evenodd"/>
</svg>
