<svg width="54.000000" height="40.000000" viewBox="0 0 54 40" fill="none" xmlns="http://www.w3.org/2000/svg" xmlns:xlink="http://www.w3.org/1999/xlink">
	<desc>
			Created with Pixso.
	</desc>
	<defs>
		<clipPath id="clip6_429">
			<rect id="bi:bell-fill" rx="0.000000" width="22.500000" height="22.500000" transform="translate(15.750000 0.750000)" fill="white" fill-opacity="0"/>
		</clipPath>
	</defs>
	<rect id="bi:bell-fill" rx="0.000000" width="22.500000" height="22.500000" transform="translate(15.750000 0.750000)" fill="#FFFFFF" fill-opacity="0"/>
	<g clip-path="url(#clip6_429)">
		<path id="Vector" d="M27 24C27.79 24 28.55 23.68 29.12 23.12C29.68 22.55 30 21.79 30 21L24 21C24 21.79 24.31 22.55 24.87 23.12C25.44 23.68 26.2 24 27 24ZM28.49 1.64C28.51 1.43 28.49 1.22 28.42 1.03C28.35 0.83 28.25 0.64 28.11 0.49C27.97 0.33 27.8 0.21 27.6 0.12C27.41 0.04 27.2 -0.01 27 -0.01C26.79 -0.01 26.58 0.04 26.39 0.12C26.2 0.21 26.02 0.33 25.88 0.49C25.74 0.64 25.64 0.83 25.57 1.03C25.5 1.22 25.48 1.43 25.5 1.64C23.81 1.99 22.28 2.91 21.19 4.25C20.09 5.59 19.5 7.26 19.5 8.99C19.5 10.64 18.75 18 16.5 19.5L37.5 19.5C35.25 18 34.5 10.64 34.5 8.99C34.5 5.36 31.91 2.33 28.49 1.64Z" fill="#FFFFFF" fill-opacity="1.000000" fill-rule="nonzero"/>
	</g>
</svg>
