<svg width="27.000000" height="45.000000" viewBox="0 0 27 45" fill="none" xmlns="http://www.w3.org/2000/svg" xmlns:xlink="http://www.w3.org/1999/xlink">
	<desc>
			Created with Pixso.
	</desc>
	<defs>
		<clipPath id="clip6_261">
			<rect id="feather:search" rx="0.000000" width="23.000000" height="23.000000" transform="translate(2.500000 0.500000)" fill="white" fill-opacity="0"/>
		</clipPath>
	</defs>
	<rect id="feather:search" rx="0.000000" width="23.000000" height="23.000000" transform="translate(2.500000 0.500000)" fill="#FFFFFF" fill-opacity="0"/>
	<g clip-path="url(#clip6_261)">
		<path id="Vector" d="M13 19C8.58 19 5 15.41 5 11C5 6.58 8.58 3 13 3C17.41 3 21 6.58 21 11C21 15.41 17.41 19 13 19Z" stroke="#FFFFFF" stroke-opacity="1.000000" stroke-width="2.000000" stroke-linejoin="round"/>
		<path id="Vector" d="M23 21L18.65 16.65" stroke="#FFFFFF" stroke-opacity="1.000000" stroke-width="2.000000" stroke-linejoin="round" stroke-linecap="round"/>
	</g>
	<path id="Search" d="M2.89 32.21C1.61 32.21 0.75 31.55 0.69 30.5L1.57 30.5C1.64 31.07 2.19 31.45 2.96 31.45C3.68 31.45 4.21 31.07 4.21 30.56C4.21 30.11 3.89 29.84 3.14 29.66L2.39 29.48C1.33 29.22 0.84 28.72 0.84 27.92C0.84 26.92 1.71 26.24 2.94 26.24C4.16 26.24 5 26.92 5.03 27.92L4.16 27.92C4.1 27.34 3.63 26.99 2.93 26.99C2.23 26.99 1.76 27.35 1.76 27.86C1.76 28.27 2.06 28.51 2.81 28.69L3.44 28.85C4.63 29.13 5.12 29.6 5.12 30.45C5.12 31.53 4.26 32.21 2.89 32.21ZM23.35 32.11L22.48 32.11L22.48 26.33L23.34 26.33L23.34 28.6L23.36 28.6C23.59 28.11 24.05 27.83 24.69 27.83C25.62 27.83 26.17 28.44 26.17 29.4L26.17 32.11L25.3 32.11L25.3 29.56C25.3 28.94 24.99 28.57 24.38 28.57C23.74 28.57 23.35 29.01 23.35 29.68L23.35 32.11ZM7.9 31.49C8.39 31.49 8.76 31.24 8.87 30.87L9.69 30.87C9.57 31.64 8.84 32.19 7.88 32.19C6.64 32.19 5.89 31.35 5.89 30.02C5.89 28.7 6.65 27.82 7.84 27.82C9.01 27.82 9.74 28.65 9.74 29.92L9.74 30.22L6.77 30.22L6.77 30.27C6.77 31 7.21 31.49 7.9 31.49ZM13.24 31.42C12.99 31.89 12.46 32.18 11.91 32.18C11.08 32.18 10.51 31.67 10.51 30.91C10.51 30.18 11.07 29.72 12.07 29.67L13.22 29.6L13.22 29.28C13.22 28.81 12.91 28.53 12.38 28.53C11.88 28.53 11.57 28.77 11.49 29.14L10.67 29.14C10.72 28.38 11.37 27.82 12.41 27.82C13.43 27.82 14.09 28.36 14.09 29.21L14.09 32.11L13.26 32.11L13.26 31.42L13.24 31.42ZM19.75 27.82C20.83 27.82 21.49 28.52 21.57 29.35L20.74 29.35C20.66 28.9 20.32 28.54 19.75 28.54C19.09 28.54 18.65 29.1 18.65 30C18.65 30.93 19.09 31.47 19.76 31.47C20.3 31.47 20.64 31.17 20.74 30.68L21.58 30.68C21.48 31.58 20.77 32.19 19.75 32.19C18.55 32.19 17.76 31.37 17.76 30C17.76 28.67 18.55 27.82 19.75 27.82ZM16.05 32.11L15.19 32.11L15.19 27.9L16.01 27.9L16.01 28.61L16.03 28.61C16.17 28.12 16.55 27.83 17.04 27.83C17.17 27.83 17.28 27.85 17.34 27.86L17.34 28.67C17.27 28.64 17.12 28.62 16.95 28.62C16.4 28.62 16.05 28.99 16.05 29.59L16.05 32.11ZM8.88 29.62C8.86 28.97 8.45 28.52 7.84 28.52C7.24 28.52 6.81 28.98 6.77 29.62L8.88 29.62ZM11.38 30.89C11.38 31.26 11.68 31.5 12.15 31.5C12.75 31.5 13.22 31.08 13.22 30.53L13.22 30.2L12.19 30.26C11.67 30.3 11.38 30.53 11.38 30.89Z" fill="#FFFFFF" fill-opacity="1.000000" fill-rule="evenodd"/>
</svg>
