<svg width="27.833252" height="39.894730" viewBox="0 0 27.8333 39.8947" fill="none" xmlns="http://www.w3.org/2000/svg" xmlns:xlink="http://www.w3.org/1999/xlink">
	<desc>
			Created with Pixso.
	</desc>
	<defs>
		<clipPath id="clip6_426">
			<rect id="bx:bxs-share-alt" rx="0.000000" width="23.000000" height="23.000000" transform="translate(2.500000 0.500000)" fill="white" fill-opacity="0"/>
		</clipPath>
	</defs>
	<path id="Share" d="M3.29 39.35C1.63 39.35 0.47 38.45 0.38 37.06L1.36 37.06C1.46 37.91 2.26 38.47 3.38 38.47C4.44 38.47 5.21 37.91 5.21 37.14C5.21 36.47 4.75 36.07 3.7 35.79L2.69 35.53C1.25 35.16 0.6 34.53 0.6 33.46C0.6 32.16 1.75 31.25 3.38 31.25C4.94 31.25 6.07 32.17 6.11 33.48L5.13 33.48C5.04 32.64 4.36 32.13 3.34 32.13C2.33 32.13 1.62 32.65 1.62 33.42C1.62 34.01 2.05 34.36 3.12 34.64L3.94 34.86C5.57 35.27 6.22 35.89 6.22 37.02C6.22 38.45 5.09 39.35 3.29 39.35ZM8.18 39.22L7.24 39.22L7.24 31.38L8.18 31.38L8.18 34.47L8.2 34.47C8.52 33.84 9.14 33.47 10 33.47C11.24 33.47 11.99 34.31 11.99 35.57L11.99 39.22L11.04 39.22L11.04 35.74C11.04 34.84 10.59 34.31 9.7 34.31C8.76 34.31 8.18 34.95 8.18 35.92L8.18 39.22ZM16.63 38.25C16.29 38.89 15.57 39.32 14.81 39.32C13.68 39.32 12.93 38.64 12.93 37.62C12.93 36.65 13.67 36.04 14.98 35.97L16.6 35.88L16.6 35.4C16.6 34.71 16.14 34.3 15.36 34.3C14.63 34.3 14.17 34.64 14.05 35.2L13.14 35.2C13.21 34.22 14.04 33.47 15.38 33.47C16.71 33.47 17.54 34.19 17.54 35.31L17.54 39.22L16.65 39.22L16.65 38.25L16.63 38.25ZM19.66 39.22L18.71 39.22L18.71 33.57L19.61 33.57L19.61 34.49L19.63 34.49C19.81 33.86 20.33 33.47 21 33.47C21.16 33.47 21.3 33.5 21.38 33.51L21.38 34.42C21.3 34.4 21.1 34.37 20.87 34.37C20.14 34.37 19.66 34.9 19.66 35.7L19.66 39.22ZM24.2 38.5C24.91 38.5 25.44 38.13 25.6 37.6L26.53 37.6C26.36 38.59 25.41 39.32 24.17 39.32C22.55 39.32 21.57 38.19 21.57 36.41C21.57 34.66 22.57 33.47 24.13 33.47C25.66 33.47 26.6 34.58 26.6 36.29L26.6 36.65L22.54 36.65L22.54 36.7C22.54 37.78 23.18 38.5 24.2 38.5ZM25.62 35.91C25.6 34.96 25 34.29 24.11 34.29C23.23 34.29 22.61 34.97 22.55 35.91L25.62 35.91ZM13.89 37.62C13.89 38.16 14.34 38.51 15.02 38.51C15.91 38.51 16.6 37.89 16.6 37.07L16.6 36.61L15.09 36.7C14.33 36.75 13.89 37.09 13.89 37.62Z" fill="#FFFFFF" fill-opacity="0.830000" fill-rule="evenodd"/>
	<rect id="bx:bxs-share-alt" rx="0.000000" width="23.000000" height="23.000000" transform="translate(2.500000 0.500000)" fill="#FFFFFF" fill-opacity="0"/>
	<g clip-path="url(#clip6_426)">
		<path id="Vector" d="M5 12C5 13.65 6.34 15 8 15C8.79 15 9.51 14.68 10.04 14.18L16.04 17.6C16.02 17.73 16 17.86 16 18C16 19.65 17.34 21 19 21C20.65 21 22 19.65 22 18C22 16.34 20.65 15 19 15C18.2 15 17.48 15.31 16.95 15.82L10.96 12.39C10.97 12.26 11 12.13 11 12C11 11.86 10.97 11.73 10.96 11.6L16.95 8.18C17.48 8.68 18.2 9 19 9C20.65 9 22 7.65 22 6C22 4.34 20.65 3 19 3C17.34 3 16 4.34 16 6C16 6.13 16.02 6.26 16.04 6.39L10.04 9.82C9.49 9.29 8.76 9 8 9C6.34 9 5 10.34 5 12Z" fill="#FFFFFF" fill-opacity="1.000000" fill-rule="nonzero"/>
	</g>
</svg>
