<svg width="51.000000" height="43.000000" viewBox="0 0 51 43" fill="none" xmlns="http://www.w3.org/2000/svg" xmlns:xlink="http://www.w3.org/1999/xlink">
	<desc>
			Created with Pixso.
	</desc>
	<defs/>
	<path id="Vector" d="M18 4L16 4L16 18C16 19.1 16.9 20 18 20L32 20L32 18L18 18L18 4ZM34 0L22 0C20.9 0 20 0.89 20 2L20 14C20 15.1 20.9 16 22 16L34 16C35.09 16 36 15.1 36 14L36 2C36 0.89 35.09 0 34 0ZM34 14L22 14L22 2L34 2L34 14ZM26 3.5L26 12.5L32 8L26 3.5Z" fill="#8C8787" fill-opacity="1.000000" fill-rule="nonzero"/>
	<path id="Coming Soon" d="M5.67 28.31C5.45 29.51 4.55 30.21 3.22 30.21C1.6 30.21 0.57 29.06 0.57 27.22C0.57 25.39 1.6 24.24 3.22 24.24C4.53 24.24 5.52 25.04 5.67 26.25L4.78 26.25C4.62 25.51 4 25.02 3.22 25.02C2.17 25.02 1.49 25.88 1.49 27.22C1.49 28.57 2.16 29.42 3.22 29.42C4.03 29.42 4.6 29.01 4.78 28.31L5.67 28.31ZM34.04 30.21C32.76 30.21 31.89 29.55 31.84 28.5L32.72 28.5C32.79 29.07 33.34 29.45 34.1 29.45C34.83 29.45 35.36 29.07 35.36 28.56C35.36 28.11 35.04 27.84 34.29 27.66L33.54 27.48C32.48 27.22 31.99 26.72 31.99 25.92C31.99 24.92 32.86 24.24 34.09 24.24C35.31 24.24 36.15 24.92 36.18 25.92L35.3 25.92C35.25 25.34 34.78 24.99 34.08 24.99C33.38 24.99 32.91 25.35 32.91 25.86C32.91 26.27 33.21 26.51 33.95 26.69L34.59 26.85C35.78 27.13 36.27 27.6 36.27 28.45C36.27 29.53 35.41 30.21 34.04 30.21ZM19.37 24.79C19.37 25.06 19.14 25.28 18.86 25.28C18.58 25.28 18.36 25.06 18.36 24.79C18.36 24.51 18.58 24.29 18.86 24.29C19.14 24.29 19.37 24.51 19.37 24.79ZM10.45 28C10.45 29.36 9.65 30.19 8.45 30.19C7.24 30.19 6.45 29.36 6.45 28C6.45 26.65 7.25 25.82 8.45 25.82C9.65 25.82 10.45 26.65 10.45 28ZM41.04 28C41.04 29.36 40.24 30.19 39.04 30.19C37.83 30.19 37.04 29.36 37.04 28C37.04 26.65 37.84 25.82 39.04 25.82C40.24 25.82 41.04 26.65 41.04 28ZM45.77 28C45.77 29.36 44.98 30.19 43.78 30.19C42.57 30.19 41.78 29.36 41.78 28C41.78 26.65 42.57 25.82 43.78 25.82C44.98 25.82 45.77 26.65 45.77 28ZM12.24 30.11L11.37 30.11L11.37 25.9L12.2 25.9L12.2 26.61L12.22 26.61C12.41 26.14 12.85 25.83 13.42 25.83C14 25.83 14.43 26.13 14.59 26.65L14.61 26.65C14.83 26.14 15.33 25.83 15.93 25.83C16.76 25.83 17.3 26.38 17.3 27.22L17.3 30.11L16.43 30.11L16.43 27.42C16.43 26.88 16.14 26.57 15.63 26.57C15.12 26.57 14.76 26.95 14.76 27.48L14.76 30.11L13.91 30.11L13.91 27.36C13.91 26.87 13.6 26.57 13.12 26.57C12.6 26.57 12.24 26.97 12.24 27.51L12.24 30.11ZM21.3 30.11L20.44 30.11L20.44 25.9L21.26 25.9L21.26 26.6L21.28 26.6C21.51 26.12 21.96 25.83 22.61 25.83C23.54 25.83 24.07 26.42 24.07 27.38L24.07 30.11L23.2 30.11L23.2 27.55C23.2 26.92 22.9 26.57 22.3 26.57C21.7 26.57 21.3 27 21.3 27.66L21.3 30.11ZM47.57 30.11L46.7 30.11L46.7 25.9L47.53 25.9L47.53 26.6L47.55 26.6C47.78 26.12 48.22 25.83 48.87 25.83C49.8 25.83 50.33 26.42 50.33 27.38L50.33 30.11L49.47 30.11L49.47 27.55C49.47 26.92 49.17 26.57 48.57 26.57C47.96 26.57 47.57 27 47.57 27.66L47.57 30.11ZM28.95 30.03C28.95 31.04 28.17 31.7 26.97 31.7C25.98 31.7 25.24 31.17 25.13 30.44L26 30.44C26.12 30.79 26.51 31.02 27 31.02C27.68 31.02 28.08 30.64 28.08 30.06L28.08 29.37L28.06 29.37C27.83 29.83 27.33 30.13 26.73 30.13C25.67 30.13 24.98 29.3 24.98 27.99C24.98 26.66 25.67 25.83 26.75 25.83C27.34 25.83 27.83 26.13 28.09 26.62L28.11 26.62L28.11 25.9L28.95 25.9L28.95 30.03ZM19.29 30.11L18.43 30.11L18.43 25.9L19.29 25.9L19.29 30.11ZM7.33 28C7.33 28.94 7.77 29.48 8.45 29.48C9.13 29.48 9.56 28.94 9.56 28C9.56 27.07 9.12 26.53 8.45 26.53C7.77 26.53 7.33 27.07 7.33 28ZM37.92 28C37.92 28.94 38.36 29.48 39.04 29.48C39.72 29.48 40.16 28.94 40.16 28C40.16 27.07 39.72 26.53 39.04 26.53C38.36 26.53 37.92 27.07 37.92 28ZM42.66 28C42.66 28.94 43.1 29.48 43.78 29.48C44.46 29.48 44.89 28.94 44.89 28C44.89 27.07 44.45 26.53 43.78 26.53C43.1 26.53 42.66 27.07 42.66 28ZM25.86 27.99C25.86 28.87 26.3 29.41 26.96 29.41C27.64 29.41 28.08 28.86 28.08 27.99C28.08 27.13 27.64 26.56 26.96 26.56C26.3 26.56 25.86 27.11 25.86 27.99Z" fill="#8C8787" fill-opacity="1.000000" fill-rule="evenodd"/>
</svg>
