<svg width="54.000000" height="21.588379" viewBox="0 0 54 21.5884" fill="none" xmlns="http://www.w3.org/2000/svg" xmlns:xlink="http://www.w3.org/1999/xlink">
	<desc>
			Created with Pixso.
	</desc>
	<defs/>
	<rect id="Time Style" rx="0.000000" width="53.000000" height="20.000000" transform="translate(0.500000 0.500000)" fill="#FFFFFF" fill-opacity="0"/>
	<path id="Time" d="M20.36 15.92C20.36 19.48 18.76 21.58 16.08 21.58C14.14 21.58 12.67 20.44 12.36 18.7L14.24 18.7C14.48 19.5 15.18 20 16.09 20C17.64 20 18.55 18.56 18.55 16.14L18.43 16.14C17.93 17.14 16.93 17.72 15.69 17.72C13.67 17.72 12.21 16.24 12.21 14.21C12.21 12.04 13.83 10.49 16.13 10.49C17.68 10.49 18.9 11.23 19.61 12.58C20.1 13.45 20.36 14.58 20.36 15.92ZM33.41 21.33L31.6 21.33L31.6 19.36L26.44 19.36L26.44 17.67C27.39 15.92 28.87 13.57 30.74 10.76L33.41 10.76L33.41 17.76L34.84 17.76L34.84 19.36L33.41 19.36L33.41 21.33ZM40.81 21.33L38.93 21.33L38.93 12.66L38.8 12.66L36.17 14.51L36.17 12.69L38.93 10.76L40.81 10.76L40.81 21.33ZM14.06 14.15C14.06 15.36 14.93 16.22 16.14 16.22C17.35 16.22 18.24 15.36 18.24 14.18C18.24 12.98 17.33 12.07 16.15 12.07C14.97 12.07 14.06 12.97 14.06 14.15ZM31.53 12.3C30.52 13.79 29.42 15.53 28.19 17.69L28.19 17.8L31.63 17.8L31.63 12.3L31.53 12.3ZM24.68 14.84C24.68 15.5 24.21 15.99 23.51 15.99C22.82 15.99 22.34 15.5 22.34 14.84C22.34 14.17 22.82 13.68 23.51 13.68C24.21 13.68 24.68 14.17 24.68 14.84ZM24.68 20.32C24.68 20.98 24.21 21.48 23.51 21.48C22.82 21.48 22.34 20.98 22.34 20.32C22.34 19.66 22.82 19.17 23.51 19.17C24.21 19.17 24.68 19.66 24.68 20.32Z" fill="#FFFFFF" fill-opacity="1.000000" fill-rule="evenodd"/>
</svg>
