<svg width="15.333252" height="11.000000" viewBox="0 0 15.3333 11" fill="none" xmlns="http://www.w3.org/2000/svg" xmlns:xlink="http://www.w3.org/1999/xlink">
	<desc>
			Created with Pixso.
	</desc>
	<defs/>
	<path id="Wifi" d="M13.6438 4.67029C12.0315 3.13867 9.89185 2.28458 7.66711 2.28448C5.44214 2.28448 3.30225 3.13858 1.6897 4.67029C1.56836 4.7887 1.37415 4.7872 1.25464 4.66693L0.0936279 3.49661C0.0330811 3.43564 -0.000610352 3.35312 0 3.26727C0.000610352 3.18143 0.0354004 3.09933 0.0966797 3.03918C4.32861 -1.01306 11.0049 -1.01306 15.2368 3.03918C15.2981 3.09937 15.3328 3.18149 15.3333 3.26733C15.3337 3.35318 15.3 3.4357 15.2395 3.49661L14.0789 4.66693C13.9594 4.78702 13.7653 4.78851 13.6438 4.67029ZM7.66711 6.09207C8.8894 6.09198 10.0681 6.54593 10.9742 7.36572C11.0968 7.48206 11.2898 7.47952 11.4093 7.36002L12.5686 6.1897C12.6296 6.12833 12.6635 6.04504 12.6626 5.9585C12.6617 5.87198 12.6261 5.7894 12.5638 5.72925C9.80469 3.16486 5.53174 3.16486 2.77258 5.72925C2.71033 5.7894 2.67468 5.87201 2.67395 5.95856C2.6731 6.04514 2.70715 6.12839 2.76831 6.1897L3.92725 7.36002C4.04663 7.47952 4.23975 7.48206 4.3623 7.36572C5.2677 6.54648 6.44556 6.09256 7.66711 6.09207ZM9.98926 8.6539C9.99109 8.74066 9.95691 8.82434 9.8949 8.88513L7.88965 10.9071C7.83081 10.9666 7.75073 11 7.66711 11C7.5835 11 7.5033 10.9666 7.44446 10.9071L5.43884 8.88513C5.37695 8.82428 5.3429 8.7406 5.34473 8.65384C5.34656 8.56705 5.38416 8.48486 5.44861 8.4267C6.72925 7.34442 8.60486 7.34442 9.8855 8.4267C9.94995 8.48492 9.98755 8.56711 9.98926 8.6539Z" clip-rule="evenodd" fill="#FFFFFF" fill-opacity="1.000000" fill-rule="evenodd"/>
</svg>
